<?xml version="1.0" encoding="UTF-8" standalone="no"?>
<svg
   xmlns:dc="http://purl.org/dc/elements/1.1/"
   xmlns:cc="http://creativecommons.org/ns#"
   xmlns:rdf="http://www.w3.org/1999/02/22-rdf-syntax-ns#"
   xmlns:svg="http://www.w3.org/2000/svg"
   xmlns="http://www.w3.org/2000/svg"
   id="svg8"
   version="1.1"
   viewBox="0 0 165.77147 174.3623"
   height="174.3623mm"
   width="165.77147mm">
  <defs
     id="defs2" />
  <metadata
     id="metadata5">
    <rdf:RDF>
      <cc:Work
         rdf:about="">
        <dc:format>image/svg+xml</dc:format>
        <dc:type
           rdf:resource="http://purl.org/dc/dcmitype/StillImage" />
        <dc:title></dc:title>
      </cc:Work>
    </rdf:RDF>
  </metadata>
  <g
     transform="translate(22.699045,-32.515222)"
     id="layer1">
    <path
       id="path41"
       d="m 40.905779,187.75617 c -10.51587,-10.51673 -19.11977,-19.27871 -19.11977,-19.47107 0,-0.27339 3.62,-0.36565 16.58055,-0.42256 l 16.58056,-0.0728 -0.0666,-1.41111 c -0.0366,-0.77611 -0.76404,-10.17411 -1.61652,-20.88444 -1.92081,-24.13257 -3.30332,-42.51595 -4.23426,-56.303331 -1.33541,-19.777763 -1.36705,-19.994408 -3.56155,-24.384679 -2.77373,-5.549093 -8.33472,-11.055397 -15.63889,-15.485098 -11.78281,-7.145832 -30.8894698,-13.184185 -51.50556,-16.277511 -3.493707,-0.524211 -2.70337,-0.529313 81.84445,-0.528286 84.999501,0.001 85.356821,0.0034 81.844441,0.538633 -9.15487,1.395108 -19.99115,3.803467 -27.36924,6.082804 -16.426781,5.074776 -27.130681,10.754867 -34.300391,18.201719 -3.51301,3.648806 -5.54463,6.874911 -6.86795,10.905948 -0.81369,2.478613 -1.0971,4.916528 -1.74607,15.019801 -0.95059,14.798929 -3.98045,54.77065 -5.89364,77.75222 -0.34687,4.16669 -0.42424,6.32492 -0.23524,6.56167 0.21953,0.27498 3.91509,0.35278 16.75709,0.35278 9.06149,0 16.47544,0.0956 16.47544,0.21244 0,0.23131 -38.43508,38.73422 -38.66598,38.73422 -0.0776,0 -8.74503,-8.60459 -19.26091,-19.12133 z"
       style="fill:#ec9ec4;fill-opacity:1;stroke:none;stroke-width:0.28222221" />
  </g>
</svg>
